<?xml version="1.0" encoding="utf-8"?>
<!-- Generator: Adobe Illustrator 22.0.1, SVG Export Plug-In . SVG Version: 6.00 Build 0)  -->
<svg version="1.1" id="Capa_1" xmlns="http://www.w3.org/2000/svg" xmlns:xlink="http://www.w3.org/1999/xlink" x="0px" y="0px"
	 viewBox="0 0 360 131" style="enable-background:new 0 0 360 131;" xml:space="preserve">
<style type="text/css">
	.st0{fill:rgba(255, 255, 255, 0);}
</style>
<g>
	<g>
		<path class="st0" d="M1,131.8C1,88.4,1,44.7,1,1.1c119.9,0,239.8,0,359.8,0c0,43.5,0,87,0,130.8C241,131.8,121,131.8,1,131.8z
			 M193.1,71.8c-0.3,0.9-0.7,1.9-1,2.8c-1.5,2.1-1.9,3.8,1.3,4.7c2.8,0.8,5.6,1.8,8.3,3c5.5,2.4,6.4,6.1,3,11c-1,1.5-1.8,3-2.8,4.5
			c-1.6,7.3-5.3,2.8-8.8,1.9c1.9,1.6,4,2.8,6.1,3.1c4.1,0.6,5.2-3,6.8-5.8c0.7-3.2,2.9-7,1.8-9.5c-1.7-4-5.5-7-7.8-9.8
			c2-1.9,4.6-4.4,7.1-6.9c0.3,0,0.5,0,0.8,0c2,0,4.1,0,6.2,0c0.9-2.8,0.9-7,6.2-4.9c-1.4-1-2.7-1.9-3.5-2.5
			c-3.4,2.3-6.2,4.2-9.1,6.1c1.2-2,2.5-4,3.7-6c0.7-0.9,1.6-1.7,2.1-2.7c2-4.1,4.4-8.1,5.8-12.4c2.3-7.3-1-13.5-4.7-19.5
			c-1.4-2.3-2.7-4.6-4.1-6.8c3.4-1.6,6.4-0.6,9.2,3c9.2,11.5,8.5,24.6,4.8,37.5c-1.5,5.2-5.8,9.7-8.6,14.2c-0.1,0,0.4,0,0.9-0.1
			c1.7,1.3,3.2,3,5.2,3.7c2.9,1.1,6.1,1.1,9.1,2.1c4.4,1.4,8.5,7.9,7.9,12.2c-0.7,4.8-4.7,8.4-10.2,9.1c-0.2,0-0.4,0.3-0.7,0.5
			c0.8,0.3,1.6,0.5,2.2,0.8c-1.2,2.2-2.5,4.4-3.7,6.6c0.3,0.1,0.5,0.3,0.8,0.4c4.9-5.5,9.7-10.9,14.4-16.2c5.7,1,11.9,2.1,18.2,3.2
			c0.1-0.4,0.2-0.7,0.3-1.1c-1.2-0.5-2.4-1-3.8-1.6c5.4-3.6,5.7-5.4,1.8-9.8c-5.9-6.6-9.4-14.2-9.8-23.9c3.8,0.6,6.9,1,10,1.5
			c0.1-0.5,0.1-1,0.2-1.5c-3.5-0.5-7-0.9-10.9-1.4c0.1-2.3,0.2-4.7,0.4-7.6c6.8,5,6.2-4.6,10.8-3.5c-0.2-0.7-0.4-1.3-0.7-2
			c-3.2,0.9-6.5,1.8-11.1,3c3.2-4.2,5.7-7.6,9.2-12.2c-5.2,4.4-2.4-1.6-4.5-1.7c-1.6,2.2-3,4.4-4.5,6.5c-0.2-0.2-0.4-0.3-0.6-0.5
			c0.6-2.8,1.3-5.7,1.8-7.7c3.6-0.6,6.4-1,9.2-1.5c-0.8,0.3-1.5,0.7-2.3,1c-2.1-3.2-4.8-6.1-6.1-9.6c-2.1-5.8-6.9-5.8-12.3-7.4
			c3.6,4.9,6.5,8.9,9.4,12.9c0.6,0.9,1.1,2.2,1,3.2c-1.7,11.1-6,21.1-13,30.4c3-8.5,7.9-16.5,8-24.6c0.1-7.4-5-14.9-8-22.9
			c-4.1,4.4-4.1,7.4-0.7,10.8c2,2,4.1,4.8,4.6,7.5c0.5,2.6-1.1,5.6-1.7,8.4c-0.2,0.9-0.7,2.1-0.3,2.6C239.2,50,238,53,236,56
			c-0.7-0.3-1.4-0.7-2.1-1c0-5.3,0.6-10.6,0-15.8c-1.2-10.5-8.1-18.6-17.3-19.7c-5.7-0.6-11.2-1.1-16-4.4c-0.1-0.1-0.4,0.2-0.5,0.3
			c1.6,1.3,3.2,2.7,4.8,4.1c-0.1,0.5-0.3,1.1-0.4,1.6c-2.1,0-4.2,0-6.3,0c-5.2,0.1-10.5,0-15.7,0.5c-5.6,0.6-11.2,1.8-17.2,2.7
			c1.7,0.8,3.7,2.3,5.7,2.5c3.8,0.3,7.6-0.4,11.4-0.4c4.5,0.1,9,0.6,14,1c-0.9,2.7-1.4,4.2-1.9,5.6c-1.5-0.9-2.6-1.5-3.6-2.1
			c-0.8-0.3-1.5-0.6-2.3-0.9c-11.1-4.5-18.2,4-26.6,8.1c-2.9,1.4-5.6,3.7-8.6,4c-2.7,0.3-5.6-1.7-9.4-2.9c2,1.5,3.2,3,4.7,3.6
			c6,2,11.4,0.3,16.2-3.6c2.3-1.9,4.8-3.5,7.2-5.3c-3.6,7.6-5,16.1,0.2,21.2c1.9,1.1,3.8,2.3,5.7,3.4c1,0.9,2.1,2.5,3.1,2.5
			c5.6-0.2,9.1-3.5,11.6-8.3c2.4,3.6,1.5,3.4,0.6,7.6C192.4,63.9,189.5,68,193.1,71.8z M320.1,58.1c-8.8,10.4-5.8,30.9,4.3,32.5
			c0.8-2.2,1.7-4.4,2.5-6.7c1,1.1,2.1,2.1,3.1,3.2c1.4,1.4,2.8,2.9,4.7,4.9c1.6-3.5,2.8-5.9,3.9-8.4c-6.6,0-4.9-4.8-4.8-9.2
			c-0.6,1-0.9,1.5-1.2,1.9c-0.5,0-1-0.1-1.5-0.1c0.6-6.1,1.2-12.2,1.8-18.3c1.5-1.9,3-3.8,4.8-6c-4.3-0.4-7.9-1.7-10.7-0.6
			C324.3,52.4,322.4,55.8,320.1,58.1z M120.1,58.1c-8.8,10.4-5.8,30.9,4.3,32.5c0.8-2.2,1.7-4.4,2.5-6.7c1,1.1,2.1,2.1,3.1,3.2
			c1.4,1.4,2.8,2.9,4.7,4.9c1.6-3.5,2.8-5.9,3.9-8.4c-6.6,0-4.9-4.8-4.8-9.2c-0.6,1-0.9,1.5-1.2,1.9c-0.5,0-1-0.1-1.5-0.1
			c0.6-6.1,1.2-12.2,1.8-18.3c1.5-1.9,3-3.8,4.8-6c-4.3-0.4-7.9-1.7-10.7-0.6C124.3,52.4,122.4,55.8,120.1,58.1z M86.9,19.1
			c0.6-2,2.2-4.3,1.7-6C86.5,6,75.8,2.9,68.9,7.1c0,0,0.2-0.2,0.2-0.2c-1.7,1.8-3.7,3.4-5,5.5c-2.5,4-0.7,10.6-7.2,12.5
			c-0.4,0.1-0.5,1.5-0.7,2.3c-4.7,5.6-3.6,11.6-1.2,17.7c1.1,5.7,4,10,9.5,12.3c3.2,2.3,6.4,4.6,9.6,6.9c5.8,5.6,11.5,11.1,4.4,20.1
			c6.5-0.9,9.9-5.2,10.6-9.2c1.6-9.6-1.6-18.6-8.4-25.8c1.1-0.8,1.8-1.3,3.1-2.2c-5.5,0.4-8.5-3.1-8.4-8.1c-2.3-0.9-4.4-1.8-6.8-2.8
			c2.4-2.5,4-4.2,5.7-6c0.6-0.2,1.1-0.4,1.7-0.6c2.1-0.9,4.1-1.8,6.2-2.7c0.6-0.2,1.3-0.4,1.9-0.6c6.6,2.2,12.5,5.4,16.8,11.6
			c0.7-8.9-1.8-13-9.1-16.1c-1.6-0.7-3.1-1.8-4.7-2.7L86.9,19.1z M271.1,60.9c-5.8,5.5-6.3,12.5-4.4,19.5c1.3,5,4.1,9.7,10.6,10.4
			c1-2.4,1.9-4.6,2.8-6.9c0.5-0.6,1-1.2,1.5-1.9c5.6-6.4,7.3-13.5,4.3-21.6c-1.7-4.6-4.9-7.8-9.6-9.6c-2,3.8-3.7,7-5.4,10.2
			L271.1,60.9z M97,101.9c0,0,0.2,0.1,0.2,0.1c0.2-0.5,0.2-1.2,0.5-1.3c4.8-1.9,9.5-3.8,12-8.8c0.2-0.4,1.4-0.2,2.3-0.3
			c0-2.5,0-4.9,0-7.4c-0.1-6.2,0.2-12.5-5.1-17.2c0-3,0-6.1,0-9.3c-1.8,0.3-3.3,0.5-5.8,0.9c2.3,3.1,4.1,5.7,5.9,8.3
			c-0.7,0.4-1.8,1.3-2.1,1c-2-1.5-3.8-3.1-5.7-4.7c-0.2,0.2-0.3,0.4-0.5,0.5c1.3,1.6,2.5,3.2,3.6,4.5c-2.9,0.8-5.6,1.6-8.4,2.4
			c0.1,0.5,0.2,0.9,0.2,1.4c4.6-2.3,9.6-4.1,13.1,0.5c4.3,5.8,6.7,12.3-0.8,17.9c0.7-0.5,1.4-0.9,2.5-1.7
			c-3.8,10.7-16.2,10.6-23.2,5.9C75.1,87.9,66,78.7,54,73.5c-7-3.1-13.3-4-19.8,0.5c-2.4,1.7-4.8,3.4-7.2,5
			c-5.1,3.8-5.6,9.1-4.8,14.8c1.2,8.8,8,11.9,15.4,7.1c1.3-1.5,3.5-2.9,3.6-4.5c0.4-5,3.1-7.9,7.7-9.6c-4.9-4.3-7.4-3.8-11.1,1
			c-1.1,1.5-3.4,2.5-5.3,2.9c-0.7,0.2-2.9-1.8-2.8-2.7c0.2-3.1,0-7.2,1.9-9c1.5-1.4,6.2-0.8,8.6,0.5c5.4,2.9,10.3,6.9,15.5,10.2
			c1.7,1.1,3.8,1.6,5.7,2.3C68,96.1,74.7,100,81.4,104c6.1,2.2,11.8,0.3,17.7-1.7C98.4,102.2,97.7,102.1,97,101.9z M306.4,57.2
			c1.7-1.4,3.5-2.7,5.7-4.5c-6.4-0.5-12.4-4-15.5,4.3c-0.6-2.7-0.9-4.2-1.4-6.4c-2.3,3-4,5.3-5.8,7.6c0.3-0.1,0.7-0.1,1-0.2
			c0,10.9,0,21.7,0,32.6c0.7,0.1,1.3,0.2,2,0.3c1.4-3.4,5.4-5,4.3-10.4c-1.2-6-0.7-12.3-0.6-18.4c0.1-4.6,2.1-6,6.8-5.4
			C304.1,56.9,305.3,57.1,306.4,57.2c-0.7,2.1-1.3,4.1-2.2,6c-3.6,8-3.8,16.1,0,24c0.8,1.6,2.8,2.5,4.3,3.8c1-1.4,2-2.7,2.9-4.1
			c0.6-0.9,0.9-1.9,0.8-1.8c-2-2.2-4.5-3.7-4.8-5.5c-0.9-5.5-1-11.1-1.2-16.7C306.1,61.1,306.3,59.2,306.4,57.2z M189.8,70.6
			c-1.5-0.5-2.9-0.8-4.1-1.5c-2.9-1.6-5.6-3.1-8.5-0.1c-2.8,2.9-2.8,6.1-1.3,9.6c2.9,6.5,9.4,8.3,14.7,11.7c2,1.3,3.7,2.8,5.9,4.4
			c0-2.8,0-6,0-8.9c-5.5-2.8-11.6-5.7-17.3-9.2c-1.2-0.8-1-3.9-1.5-6c1.7,0,3.7-0.4,5.1,0.2C185.4,72.1,187.5,73.8,189.8,70.6z
			 M231.6,98.9c0.5-1.9,1-3.6,1.5-5.2c1.9-5.5-1.1-9.4-6.8-9.7c-7.1-0.5-13.5-2.8-18.7-8.5c-0.1,2.4-0.5,5.4,0.8,6.9
			c2.3,2.6,5.6,4.3,8.6,6.2c3.3,2.1,6.7,4,10.5,6.2c-0.3-2.7-0.6-6.2-0.9-9.9C236,86.9,226.6,95.5,231.6,98.9z M38.8,65.6
			c0.9-0.3,2.3-1.2,3.5-1c6.9,1.1,13.7,2.5,20.6,3.8c0.1-0.5,0.2-1,0.4-1.6c-10.4-2.1-20.8-4.3-30.3-6.2
			C34.3,61.8,36.6,63.8,38.8,65.6z M162.2,21.4c0.5,0,1,0,1.5,0c0.3-5.3,2.1-6.7,5.6-3.9c4.6,3.7,5.1,0,6.9-2.3
			c-2.6-0.5-4.6-1.2-6.6-1.2c-2.1,0-4.9,0-6.2,1.3C162.1,16.5,162.5,19.3,162.2,21.4z M97.3,43.1c-1.8-1.7-3.5-3.3-5.1-5
			c-2-2.2-3.9-4.5-7.3-1.6C89.4,38.6,90.6,46.7,97.3,43.1z M253.2,19.2c-0.5,0.3-1,0.6-1.5,0.9c2.7,3.3,5.4,6.7,8,10
			C263,23.6,257.4,21.8,253.2,19.2z M94.2,82.5c7.2,3.3,5-6.3,10.6-5.8C96.8,72.3,97.1,79.4,94.2,82.5z M68.6,106.6
			c-3.5-0.6-5.9-1.1-7.7-1.4c0-2,0-3.6,0-6.3c-1.9,1.7-2.8,2.5-3.9,3.6c-0.8-1.7-1.4-2.9-2.3-4.8C55.2,105.3,58.5,107.4,68.6,106.6z
			 M93.5,47.3c-3.7,2.7-4.7,7.9-2.7,14.2C91.8,56.7,92.6,52.2,93.5,47.3z"/>
		<path d="M201.9,97.9c0.9-1.5,1.8-3.1,2.8-4.5c3.4-4.9,2.5-8.7-3-11c-2.7-1.2-5.5-2.1-8.3-3c-3.2-0.9-2.8-2.6-1.3-4.7
			c0.6,0.1,1.5,0.4,1.9,0.2c6-4.9,9.6-11.2,10.8-18.9c0.1-0.6-1.1-1.3-1.5-1.7c-1.9,4.7-3.6,8.9-5.3,13.1c0-0.7,0-1.4,0.2-2
			c2.1-6.2,5-12.5-1.4-18.1c-0.3-0.3-0.4-0.9-0.5-1.4c-1.7-5-0.6-11-5.2-14.9c1.1,0.6,2.1,1.3,3.6,2.1c0.5-1.4,1-2.8,1.9-5.6
			c-5-0.4-9.5-0.9-14-1c-3.8-0.1-7.6,0.7-11.4,0.4c-2.1-0.2-4-1.7-5.7-2.5c6-1,11.6-2.2,17.2-2.7c5.2-0.5,10.5-0.4,15.7-0.5
			c2.1-0.1,4.2,0,6.3,0c0.1-0.5,0.3-1.1,0.4-1.6c-1.6-1.4-3.2-2.8-4.8-4.1c0,0,0.4-0.3,0.5-0.3c4.9,3.3,10.4,3.7,16,4.4
			c9.2,1,16.1,9.2,17.3,19.7c0.6,5.2,0,10.6,0,15.8c-1.6,3.1-3.1,6.2-4.9,9.1c-2.2,3.4-4.6,6.6-7,9.9c-1.6,1-3.3,2-4.9,3
			c-0.5,0-1,0.1-0.9,0.1c2.9-4.6,7.1-9,8.6-14.2c3.7-12.9,4.3-25.9-4.8-37.5c-2.8-3.6-5.8-4.6-9.2-3c-2,0-4.1,0-6.4,0
			c2.4,5,5.1,9.2,6.3,13.9c1.3,4.8,1,10.1,1.5,15.1c1.9-0.8,3.8-2.3,3.8-3.9c0-6.1-0.6-12.2-1-18.2c3.7,6,7.1,12.2,4.7,19.5
			c-1.4,4.3-3.8,8.3-5.8,12.4c-0.5,1-1.4,1.8-2.1,2.7c0.9-3.1,1.7-6.1,2.6-9.2c-0.6-0.3-1.2-0.6-1.8-0.9c-2.3,3.8-4.3,7.9-6.9,11.5
			c-2.8,3.8-6.1,7.1-9.2,10.6c2.3-0.3,4.2-1.2,6-2.2c1.6-0.8,3.2-1.7,4.8-2.6c-2.6,2.5-5.1,4.9-7.1,6.9c2.3,2.8,6.1,5.9,7.8,9.8
			c1,2.5-1.1,6.3-1.8,9.5C204.7,97.4,203.3,97.6,201.9,97.9z M204.4,51.9c2-9.6-1.2-19.2-8.1-21.8C198.8,37,201.4,43.9,204.4,51.9z
			 M197.3,36.8c-0.7,0.2-1.3,0.5-2,0.7c1.3,3.7,2.6,7.3,4,11c0.6-0.2,1.3-0.5,1.9-0.7C199.9,44.1,198.6,40.5,197.3,36.8z"/>
		<path d="M217,77c1.6-1,3.3-2,4.9-3c6.3-4.7,11.3-10.5,14-18.1c2-3,3.2-5.9,0.4-9.2c-0.4-0.4,0.1-1.7,0.3-2.6
			c0.6-2.8,2.2-5.8,1.7-8.4c-0.5-2.7-2.5-5.4-4.6-7.5c-3.4-3.4-3.4-6.4,0.7-10.8c3,8,8.1,15.5,8,22.9c-0.1,8-5,16-8,24.6
			c7-9.3,11.3-19.3,13-30.4c0.2-1-0.4-2.3-1-3.2c-2.8-4.1-5.8-8-9.4-12.9c5.4,1.6,10.2,1.6,12.3,7.4c1.3,3.5,4,6.4,6.1,9.6
			c0.8-0.3,1.5-0.7,2.3-1c-2.8,0.4-5.6,0.9-9.2,1.5c-0.5,2-1.1,4.9-1.8,7.7c0.2,0.2,0.4,0.3,0.6,0.5c1.5-2.1,3-4.2,4.5-6.5
			c2.1,0.1-0.8,6.1,4.5,1.7c-3.5,4.7-6.1,8-9.2,12.2c4.6-1.3,7.9-2.2,11.1-3c0.2,0.7,0.4,1.3,0.7,2c-4.6-1.1-4,8.4-10.8,3.5
			c-0.1,2.9-0.3,5.3-0.4,7.6c3.9,0.5,7.4,1,10.9,1.4c-0.1,0.5-0.1,1-0.2,1.5c-3.1-0.5-6.2-0.9-10-1.5c0.3,9.7,3.9,17.2,9.8,23.9
			c3.9,4.4,3.6,6.2-1.8,9.8c1.4,0.6,2.6,1.1,3.8,1.6c-0.1,0.4-0.2,0.7-0.3,1.1c-6.2-1.1-12.5-2.2-18.2-3.2
			c-4.7,5.3-9.5,10.7-14.4,16.2c-0.3-0.1-0.5-0.3-0.8-0.4c1.2-2.2,2.5-4.4,3.7-6.6c-0.7-0.2-1.4-0.5-2.2-0.8
			c0.3-0.2,0.5-0.5,0.7-0.5c5.5-0.7,9.5-4.3,10.2-9.1c0.6-4.3-3.5-10.8-7.9-12.2c-3-0.9-6.2-1-9.1-2.1C220.3,80,218.7,78.3,217,77z
			 M241.7,62.5c-5.5,5-11.9,10.7-17.4,15.7c5.4,1.6,11.6,3.3,18.4,5.3c-1.7,0.4-2.7,0.7-3.7,1c0.6,1.9,0.9,3.6,1.6,5
			c0.9,1.7,2.3,3.3,3.4,4.9c1.5-1.3,3-2.6,4.9-4.2c-0.4,1.9-0.9,3.8-1.3,5.8c2.2,0,4.3,0,6.7,0c-2.9-5.8-6.2-11-8.3-16.6
			C244,73.8,243,67.9,241.7,62.5z"/>
		<path d="M27,79.1c2.4-1.7,4.8-3.4,7.2-5c6.5-4.5,12.8-3.6,19.8-0.5c12,5.2,21.1,14.3,31.8,21.3c7,4.6,19.4,4.8,23.2-5.9
			c-1.2,0.8-1.8,1.2-2.5,1.7c7.5-5.6,5.2-12.1,0.8-17.9c-3.4-4.6-8.5-2.9-13.1-0.5c-0.1-0.5-0.2-0.9-0.2-1.4
			c2.8-0.8,5.5-1.6,8.4-2.4c-1.1-1.3-2.3-2.9-3.6-4.5c0.2-0.2,0.3-0.4,0.5-0.5c1.9,1.6,3.7,3.3,5.7,4.7c0.3,0.2,1.4-0.7,2.1-1
			l-0.1,0.1c5.3,4.7,5,11,5.1,17.2c0,2.4,0,4.9,0,7.4c-0.9,0.1-2.1-0.1-2.3,0.3c-2.6,5-7.2,6.9-12,8.8c-0.3,0.1-0.3,0.9-0.5,1.3
			c-3.1-0.2-6.4,0.2-9.4-0.7c-13.9-4-24.1-14.2-35.9-21.8c-5-3.3-10.8-5-16.7-3.7c3.5,1.8,7,3.4,10.3,5.2c5.4,2.9,10.7,6,16,9.1
			c0.2,0.1-0.1,1.3-0.2,1.9c-1.9-0.8-4-1.2-5.7-2.3c-5.2-3.3-10.1-7.3-15.5-10.2c-2.4-1.3-7.1-1.9-8.6-0.5c-1.9,1.7-1.7,5.8-1.9,9
			c0,0.9,2.1,2.9,2.8,2.7c1.9-0.4,4.1-1.4,5.3-2.9c3.7-4.9,6.1-5.4,11.1-1c-4.5,1.7-7.2,4.6-7.7,9.6c-0.1,1.6-2.3,3-3.6,4.5
			c1.1-2.4,2.3-4.8,3.3-6.9c-2.8,0-5.3,0.7-6.7-0.2c-2.9-1.9-7-3.2-6.4-8.2C28,83.6,27.3,81.3,27,79.1z"/>
		<path class="st0" d="M190.9,31c4.6,4,3.5,10,5.2,14.9c0.2,0.5,0.2,1.1,0.5,1.4c6.4,5.6,3.5,11.8,1.4,18.1c-0.2,0.6-0.1,1.3-0.2,2
			c-0.9,1.2-1.9,2.5-2.8,3.7c0.9-10.3-0.9-23.9-3.6-28.1c1.5,11.8-3,17.1-13.5,15.6c-1.9-1.1-3.8-2.3-5.7-3.4
			c-0.6-3.4-1.4-6.8-1.8-10.2c-0.1-1.4,0.3-3.9,1-4.1c3.6-1,4.9-4.4,5.7-6.7c1.1-2.9,2.7-3.4,4.9-3.8c2.1-0.3,4.3-0.2,6.4-0.3
			C189.3,30.3,190.1,30.6,190.9,31z M181.6,52.3c0.5-0.1,1-0.2,1.5-0.3c-0.5-2.6-1.9-5.5-1.3-7.9c0.6-2.3,3.2-4,5.7-6.8
			c-2.4,0.9-4.7,1.2-6.2,2.4C176.1,43.9,180.3,48.2,181.6,52.3z"/>
		<path d="M56.2,27.1c0.2-0.8,0.3-2.1,0.7-2.3c6.5-1.9,4.6-8.4,7.2-12.5c1.3-2.1,3.3-3.7,5-5.5c-7,7.3-7.2,17.9-1.7,25.2
			c2.5-0.8,4.7-1.5,6.9-2.2c-1.7,1.7-3.3,3.5-5.7,6c2.4,1,4.5,1.9,6.8,2.8c-0.1,5,2.9,8.4,8.4,8.1c-1.3,0.9-2,1.4-3.1,2.2
			c6.9,7.2,10,16.2,8.4,25.8c-0.7,4-4.1,8.4-10.6,9.2c7.1-9,1.4-14.5-4.4-20.1c-1.8-2.3-3.4-4.7-5.4-6.8C64,51.8,61,45.5,63.9,38.9
			c2.8-6.2-0.6-10.1-2.2-15.6C59.6,24.8,57.9,25.9,56.2,27.1z M86.3,73.6C90.3,56.3,76,48.3,67.8,36.2c-1.5,7.2-0.3,10.2,4.8,14.3
			C80,56.4,87.7,62.2,86.3,73.6z"/>
		<path class="st0" d="M74.3,29.9c-2.2,0.7-4.4,1.4-6.9,2.2c-5.4-7.3-5.3-17.9,1.7-25.2c0,0-0.2,0.2-0.2,0.2
			c1.1-0.3,2.2-0.5,3.3-0.8c7.7-1.7,15.5,5.1,14.7,12.9c0,0,0.1-0.2,0.1-0.2c-1.2-1.3-2.3-2.6-3.5-3.9c-0.4,0.1-0.8,0.2-1.2,0.3
			c0.6,3.5,1.1,7.1,1.7,10.6c-0.6,0.2-1.3,0.4-1.9,0.6c-0.7-0.3-2-0.5-2.1-0.9c-0.9-3.8-1.5-7.7-2.3-11.5c-0.5,0-1.1,0-1.6,0
			c-0.2,2.2-0.6,4.5-0.6,6.7c0,2.8,0.3,5.6,0.5,8.4C75.4,29.6,74.8,29.8,74.3,29.9z"/>
		<path class="st0" d="M56.2,27.1c1.7-1.2,3.4-2.3,5.6-3.8c1.5,5.5,4.9,9.5,2.2,15.6C61,45.5,64,51.8,68.7,57.1
			c1.9,2.1,3.6,4.6,5.4,6.8c-3.2-2.3-6.4-4.6-9.6-6.9c-3.6-3.7-7.2-7.3-7.2-13c-0.2,0.8-0.4,1.5-0.6,2.3c-0.6-0.5-1.1-1.1-1.7-1.6
			C52.6,38.7,51.4,32.7,56.2,27.1z"/>
		<path class="st0" d="M281.6,82.1c-0.5,0.6-1,1.2-1.5,1.9c-5.5-1.4-9.6-5.6-9.9-11.4c-0.2-3.9,0.5-7.8,0.9-11.7
			c0,0-0.1,0.2-0.1,0.2c3.4-4.3,4.4-4.2,7.9,0.1C284.2,67.6,284,74.7,281.6,82.1z"/>
		<path d="M306.4,57.3c-1.2-0.2-2.3-0.4-3.5-0.5c-4.7-0.6-6.7,0.8-6.8,5.4c-0.1,6.1-0.6,12.5,0.6,18.4c1.1,5.4-2.9,7-4.3,10.4
			c-0.7-0.1-1.3-0.2-2-0.3c0-10.9,0-21.7,0-32.6c-0.3,0.1-0.7,0.1-1,0.2c1.7-2.3,3.5-4.6,5.8-7.6c0.5,2.2,0.8,3.7,1.4,6.4
			c3.1-8.2,9.1-4.7,15.5-4.3C309.9,54.5,308.1,55.9,306.4,57.3C306.4,57.2,306.4,57.3,306.4,57.3z"/>
		<path class="st0" d="M61.4,92.2c0.1-0.7,0.5-1.8,0.2-1.9c-5.3-3.1-10.6-6.1-16-9.1c-3.4-1.8-6.9-3.5-10.3-5.2
			c5.9-1.4,11.6,0.4,16.7,3.7c11.8,7.6,22,17.8,35.9,21.8c2.9,0.8,6.2,0.5,9.4,0.7c0,0-0.2-0.1-0.2-0.1c-5.2,0.7-10.4,1.4-15.6,2
			C74.7,100,68,96.1,61.4,92.2z"/>
		<path class="st0" d="M27,79.1c0.3,2.2,1,4.5,0.7,6.7c-0.5,5,3.5,6.3,6.4,8.2c1.4,0.9,3.9,0.2,6.7,0.2c-1,2.1-2.1,4.5-3.3,6.9
			c-7.4,4.8-14.2,1.7-15.4-7.1C21.4,88.2,21.9,82.8,27,79.1z"/>
		<path d="M189.8,70.6c-2.3,3.1-4.5,1.4-6.9,0.3c-1.4-0.7-3.4-0.2-5.1-0.2c0.4,2,0.2,5.2,1.5,6c5.7,3.5,11.8,6.3,17.3,9.2
			c0,2.9,0,6.1,0,8.9c-2.2-1.6-3.9-3.1-5.9-4.4c-5.3-3.4-11.8-5.2-14.7-11.7c-1.6-3.5-1.5-6.7,1.3-9.6c2.9-3.1,5.6-1.6,8.5,0.1
			C186.9,69.8,188.3,70.1,189.8,70.6z"/>
		<path d="M231.6,98.9c-5-3.4,4.4-12.1-5-14c0.3,3.7,0.7,7.2,0.9,9.9c-3.8-2.2-7.2-4.1-10.5-6.2c-3-1.9-6.3-3.7-8.6-6.2
			c-1.3-1.5-0.9-4.4-0.8-6.9c5.2,5.7,11.6,8,18.7,8.5c5.6,0.4,8.6,4.3,6.8,9.7C232.5,95.4,232.1,97.1,231.6,98.9z"/>
		<path d="M281.6,82.1c2.3-7.4,2.5-14.5-2.8-20.9c-3.5-4.2-4.5-4.3-7.9-0.1c1.7-3.2,3.4-6.4,5.4-10.2c4.7,1.8,7.9,5,9.6,9.6
			C289,68.6,287.3,75.7,281.6,82.1z"/>
		<path d="M271.1,60.9c-0.3,3.9-1.1,7.8-0.9,11.7c0.3,5.8,4.4,10,9.9,11.4c-0.9,2.3-1.9,4.5-2.8,6.9c-6.6-0.7-9.3-5.4-10.6-10.4
			C264.8,73.4,265.3,66.4,271.1,60.9z"/>
		<path d="M133,58c-0.6,6.1-1.2,12.2-1.8,18.3c0.5,0,1,0.1,1.5,0.1c0.3-0.5,0.6-0.9,1.2-1.9c-0.1,4.3-1.8,9.1,4.8,9.2
			c-1.2,2.5-2.3,4.9-3.9,8.4c-2-2-3.4-3.5-4.7-4.9c-1-1.1-2.1-2.1-3.1-3.2c0,0,0.1,0.1,0.1,0.1c0.1-1.9,0.5-3.8,0.3-5.7
			c-0.6-7.5,1.1-14.3,5.7-20.3L133,58z"/>
		<path d="M333,58c-0.6,6.1-1.2,12.2-1.8,18.3c0.5,0,1,0.1,1.5,0.1c0.3-0.5,0.6-0.9,1.2-1.9c-0.1,4.3-1.8,9.1,4.8,9.2
			c-1.2,2.5-2.3,5-3.9,8.4c-2-2-3.4-3.5-4.7-4.9c-1-1.1-2.1-2.1-3.1-3.2c0,0,0.1,0.1,0.1,0.1c0.1-1.9,0.5-3.8,0.3-5.7
			c-0.6-7.5,1.1-14.3,5.7-20.3L333,58z"/>
		<path d="M84,26.1c-0.6-3.5-1.1-7.1-1.7-10.6c0.4-0.1,0.8-0.2,1.2-0.3c1.2,1.3,2.3,2.6,3.5,3.9c1.6,0.9,3,2,4.7,2.7
			c7.3,3.1,9.7,7.1,9.1,16.1C96.4,31.5,90.5,28.3,84,26.1z"/>
		<path class="st0" d="M214.8,29.1c0.4,6.1,1,12.2,1,18.2c0,1.6-1.9,3.1-3.8,3.9c-0.4-5.1-0.2-10.3-1.5-15.1
			c-1.2-4.6-3.9-8.8-6.3-13.9c2.3,0,4.3,0,6.4,0C212.1,24.6,213.5,26.9,214.8,29.1z"/>
		<path d="M126.9,83.9c-0.8,2.3-1.7,4.5-2.5,6.7c-10.2-1.6-13.1-22.1-4.3-32.5c0,0-0.1-0.1-0.1-0.1c-0.3,5.2-1.3,10.5-0.8,15.7
			c0.5,4.5,2,9.4,7.9,10.4C127,84.1,126.9,83.9,126.9,83.9z"/>
		<path d="M326.9,83.9c-0.8,2.3-1.7,4.5-2.5,6.7c-10.2-1.6-13.1-22.1-4.3-32.5l-0.1-0.1c-0.3,5.2-1.3,10.5-0.8,15.7
			c0.5,4.5,2,9.4,7.9,10.4L326.9,83.9z"/>
		<path d="M306.4,57.2c-0.1,1.9-0.3,3.9-0.2,5.8c0.3,5.6,0.4,11.2,1.2,16.7c0.3,1.8,2.8,3.3,4.8,5.5c0.1-0.2-0.2,0.9-0.8,1.8
			c-0.9,1.4-1.9,2.7-2.9,4.1c-1.5-1.2-3.5-2.2-4.3-3.8c-3.8-7.9-3.5-16,0-24C305.1,61.3,305.7,59.3,306.4,57.2
			C306.4,57.3,306.4,57.2,306.4,57.2z"/>
		<path d="M188.6,30c-2.1,0.1-4.3,0-6.4,0.3c-2.2,0.3-3.8,0.8-4.9,3.8c-0.8,2.3-2.2,5.7-5.7,6.7c-0.7,0.2-1.2,2.7-1,4.1
			c0.4,3.4,1.1,6.8,1.8,10.2c-5.2-5-3.8-13.6-0.2-21.2c-2.4,1.7-4.9,3.4-7.2,5.3c-4.8,3.9-10.1,5.6-16.2,3.6c-1.5-0.5-2.7-2-4.7-3.6
			c3.8,1.3,6.7,3.2,9.4,2.9c2.9-0.3,5.7-2.6,8.6-4C170.4,34,177.5,25.5,188.6,30z"/>
		<path class="st0" d="M207.2,70.9c-1.6,0.9-3.2,1.8-4.8,2.6c-1.9,1-3.7,1.9-6,2.2c3.1-3.5,6.5-6.8,9.2-10.6
			c2.6-3.6,4.6-7.6,6.9-11.5c0.6,0.3,1.2,0.6,1.8,0.9c-0.9,3.1-1.7,6.1-2.6,9.2c-1.2,2-2.5,4-3.7,6c0,0.4,0,0.8,0.1,1.2
			C207.8,71,207.5,71,207.2,70.9z"/>
		<path d="M178,58.4c10.5,1.5,15-3.7,13.5-15.6c2.7,4.2,4.4,17.8,3.6,28.1c-0.7,0.3-1.3,0.6-2,0.8c-3.5-3.8-0.6-8,0.2-11.5
			c1-4.2,1.8-4-0.6-7.6c-2.4,4.7-6,8-11.6,8.3C180.1,61,179,59.3,178,58.4z"/>
		<path d="M120.1,58.1c2.3-2.3,4.2-5.7,7-6.7c2.7-1,6.3,0.3,10.7,0.6c-1.8,2.2-3.3,4.1-4.8,6c0,0,0.1,0.1,0.1,0.1
			c-4.4-1.8-8.7-3.6-13.1-0.1L120.1,58.1z"/>
		<path d="M320.1,58.1c2.3-2.3,4.2-5.7,7-6.7c2.7-1,6.3,0.3,10.7,0.6c-1.8,2.2-3.3,4.1-4.8,6c0,0,0.1,0.1,0.1,0.1
			c-4.4-1.8-8.7-3.6-13.1-0.1C319.9,58,320.1,58.1,320.1,58.1z"/>
		<path d="M38.8,65.6c-2.2-1.9-4.6-3.9-5.8-5c9.4,1.9,19.9,4.1,30.3,6.2c-0.1,0.5-0.2,1-0.4,1.6c-6.9-1.3-13.7-2.7-20.6-3.8
			C41.1,64.4,39.7,65.4,38.8,65.6z"/>
		<path class="st0" d="M193.1,71.8c0.7-0.3,1.3-0.6,2-0.8c0.9-1.2,1.9-2.5,2.8-3.7c1.7-4.2,3.4-8.4,5.3-13.1
			c0.4,0.4,1.6,1.2,1.5,1.7c-1.1,7.6-4.7,14-10.8,18.9c-0.3,0.3-1.2-0.1-1.9-0.2C192.4,73.7,192.7,72.8,193.1,71.8z"/>
		<path d="M162.2,21.4c0.3-2.1,0-4.9,1.2-6c1.3-1.3,4.1-1.3,6.2-1.3c2,0,4,0.7,6.6,1.2c-1.8,2.3-2.4,6-6.9,2.3
			c-3.5-2.8-5.3-1.4-5.6,3.9C163.2,21.4,162.7,21.4,162.2,21.4z"/>
		<path d="M75.9,29.4c-0.2-2.8-0.5-5.6-0.5-8.4c0-2.2,0.4-4.5,0.6-6.7c0.5,0,1.1,0,1.6,0c0.7,3.8,1.4,7.7,2.3,11.5
			c0.1,0.4,1.4,0.6,2.1,0.9C80,27.6,78,28.5,75.9,29.4z"/>
		<path class="st0" d="M236,56c-2.7,7.5-7.7,13.3-14,18.1c2.3-3.3,4.8-6.5,7-9.9c1.8-2.9,3.3-6.1,4.9-9.1
			C234.5,55.3,235.3,55.6,236,56z"/>
		<path d="M97.3,43.1c-6.7,3.6-7.9-4.5-12.4-6.6c3.4-2.9,5.3-0.5,7.3,1.6C93.8,39.8,95.6,41.4,97.3,43.1z"/>
		<path d="M253.2,19.2c4.2,2.6,9.8,4.4,6.5,10.9c-2.7-3.3-5.3-6.7-8-10C252.2,19.8,252.7,19.5,253.2,19.2z"/>
		<path d="M94.2,82.5c2.9-3,2.6-10.2,10.6-5.8C99.2,76.2,101.5,85.7,94.2,82.5z"/>
		<path d="M86.9,19.1c0.7-7.8-7-14.6-14.7-12.9c-1.1,0.2-2.2,0.5-3.3,0.8c6.9-4.2,17.6-1.1,19.8,6.1C89.2,14.8,87.6,17.1,86.9,19.1z
			"/>
		<path d="M68.6,106.6c-10.1,0.8-13.4-1.3-13.9-8.9c0.9,1.9,1.5,3.2,2.3,4.8c1.2-1.1,2-1.9,3.9-3.6c0,2.7,0,4.2,0,6.3
			C62.8,105.5,65.2,106,68.6,106.6z"/>
		<path d="M208,71c0-0.4,0-0.8-0.1-1.2c2.8-1.9,5.7-3.8,9.1-6.1c0.7,0.5,2.1,1.5,3.5,2.5c-5.4-2.2-5.3,2-6.2,4.9
			C212.1,71,210.1,71,208,71z"/>
		<path d="M201.9,97.9c1.4-0.2,2.8-0.5,4.1-0.7c-1.5,2.8-2.6,6.3-6.8,5.8c-2.2-0.3-4.2-1.5-6.1-3.1
			C196.6,100.7,200.3,105.2,201.9,97.9z"/>
		<path d="M93.5,47.3c-0.9,4.9-1.8,9.4-2.7,14.2C88.8,55.2,89.9,50,93.5,47.3z"/>
		<path d="M107,67c-1.8-2.6-3.7-5.1-5.9-8.3c2.5-0.4,4-0.6,5.8-0.9c0,3.2,0,6.3,0,9.3C106.9,67.1,107,67,107,67z"/>
		<path d="M54.9,44.8c0.6,0.5,1.1,1.1,1.7,1.6c0.2-0.7,0.4-1.5,0.6-2.3c0,5.7,3.6,9.3,7.2,13C59,54.8,56.1,50.5,54.9,44.8z"/>
		<path d="M81.4,104c5.2-0.7,10.4-1.4,15.6-2c0.7,0.1,1.4,0.2,2.2,0.4C93.3,104.3,87.5,106.2,81.4,104z"/>
		<path class="st0" d="M204.4,51.9c-3-8.1-5.6-14.9-8.1-21.8C203.2,32.7,206.4,42.3,204.4,51.9z"/>
		<path class="st0" d="M197.3,36.8c1.3,3.7,2.6,7.3,3.9,11c-0.6,0.2-1.3,0.5-1.9,0.7c-1.3-3.7-2.6-7.3-4-11
			C195.9,37.3,196.6,37,197.3,36.8z"/>
		<path class="st0" d="M241.7,62.5c1.4,5.4,2.3,11.3,4.4,16.8c2.1,5.6,5.3,10.8,8.3,16.6c-2.4,0-4.5,0-6.7,0c0.5-2,0.9-3.9,1.3-5.8
			c-1.9,1.6-3.4,2.9-4.9,4.2c-1.2-1.6-2.5-3.1-3.4-4.9c-0.8-1.4-1-3.1-1.6-5c1-0.3,2-0.5,3.7-1c-6.8-1.9-13-3.7-18.4-5.3
			C229.8,73.2,236.2,67.5,241.7,62.5z"/>
		<path d="M181.6,52.3c-1.2-4.2-5.4-8.4-0.3-12.6c1.5-1.2,3.7-1.5,6.2-2.4c-2.4,2.8-5.1,4.5-5.7,6.8c-0.6,2.3,0.8,5.2,1.3,7.9
			C182.5,52.2,182.1,52.2,181.6,52.3z"/>
		<path class="st0" d="M86.3,73.6c1.4-11.4-6.3-17.2-13.7-23.2c-5.1-4.1-6.3-7.1-4.8-14.3C76,48.3,90.3,56.3,86.3,73.6z"/>
		<path class="st0" d="M119.9,58c4.4-3.5,8.8-1.7,13.1,0.1c-4.6,6-6.4,12.8-5.7,20.3c0.2,1.9-0.2,3.8-0.3,5.7
			c-5.9-1-7.4-5.9-7.9-10.4C118.6,68.5,119.6,63.2,119.9,58z"/>
		<path class="st0" d="M319.9,58c4.4-3.5,8.8-1.7,13.1,0.1c-4.6,6-6.4,12.8-5.7,20.3c0.2,1.9-0.2,3.8-0.3,5.7
			c-5.9-1-7.4-5.9-7.9-10.4C318.6,68.5,319.6,63.2,319.9,58z"/>
	</g>
</g>
</svg>
